# xmcd CD database file
#
# Track frame offsets:
#	150
#	16645
#	29412
#	46740
#	61574
#	75512
#	93118
#	112877
#	122421
#	133924
#	146832
#	168768
#
# Disc length: 2485 seconds
#
# Revision: 1
# Processed by: cddbd v1.5.2PL0 Copyright (c) Steve Scherf et al.
# Submitted via: CDex 1.51
#
DISCID=8409b30c
DTITLE=MILIONÁRIO E JOSÉ RICO - 1988-OS GRANDES SUCESSOS - VOL. 17
DYEAR=1988
DGENRE=Sertanejo
TTITLE0=SONHO DE UM CAMINHONEIRO
TTITLE1=DE LONGE TAMBÉM SE AMA
TTITLE2=MEU MUNDO VAZIO (SEREIA)
TTITLE3=JOGO DO AMOR
TTITLE4=APAIXONADO
TTITLE5=TRIBUNAL DO AMOR
TTITLE6=SONHEI COM VOCÊ
TTITLE7=ESTRADA DA VIDA
TTITLE8=O TROPEIRO (EL BANDOLERO)
TTITLE9=DE AMOR PARA QUEM TE AMA
TTITLE10=LEMBRANÇA
TTITLE11=PRAIA DESERTA
EXTD=YEAR: 1988
EXTT0=
EXTT1=
EXTT2=
EXTT3=
EXTT4=
EXTT5=
EXTT6=
EXTT7=
EXTT8=
EXTT9=
EXTT10=
EXTT11=
PLAYORDER=
